<?xml version="1.0" encoding="UTF-8" ?>
<!DOCTYPE svg PUBLIC "-//W3C//DTD SVG 1.1//EN" "http://www.w3.org/Graphics/SVG/1.1/DTD/svg11.dtd">
<svg width="818pt" height="129pt" viewBox="0 0 818 129" version="1.1" xmlns="http://www.w3.org/2000/svg">
<g id="#01060df5">
<path fill="#01060d" opacity="0.96" d=" M 789.07 18.12 C 790.96 17.61 793.00 15.94 794.97 16.89 C 795.85 18.79 795.76 20.92 795.80 22.96 C 795.83 44.17 795.14 65.38 795.61 86.58 C 795.74 89.76 799.41 90.33 801.42 92.05 C 801.29 94.71 798.08 94.65 796.12 94.95 C 791.08 95.03 786.02 95.19 781.00 94.86 C 777.75 94.24 779.43 89.73 778.95 87.42 C 771.41 93.99 760.64 96.78 750.96 93.92 C 737.68 90.46 728.00 76.77 729.71 63.06 C 730.82 50.35 741.36 39.42 753.89 37.42 C 762.83 35.71 772.16 38.72 779.00 44.58 C 778.89 39.70 779.22 34.80 778.82 29.93 C 778.35 26.46 773.68 26.25 772.56 23.16 C 773.46 22.01 774.57 20.79 776.17 20.80 C 780.55 20.38 785.05 20.11 789.07 18.12 M 774.70 23.00 C 777.18 24.81 780.69 26.42 780.90 29.93 C 781.21 36.53 780.88 43.15 781.01 49.76 C 777.03 45.13 771.92 41.33 765.91 39.88 C 755.78 37.09 744.31 40.90 737.71 49.04 C 730.71 57.21 729.63 69.73 734.99 79.03 C 740.65 89.34 753.45 95.11 764.91 92.33 C 771.33 91.05 776.88 87.11 781.02 82.14 C 780.99 85.76 780.99 89.38 781.00 93.00 C 787.32 93.02 793.65 93.00 799.98 92.88 C 796.95 92.13 793.67 90.37 793.58 86.84 C 793.03 64.00 793.88 41.14 793.74 18.29 C 787.88 21.47 781.30 22.73 774.70 23.00 Z" />
<path fill="#01060d" opacity="0.96" d=" M 19.44 27.30 C 27.74 21.49 38.02 19.76 47.85 18.48 C 56.45 17.73 65.89 16.89 73.57 21.67 C 78.61 24.52 81.79 30.09 81.40 35.92 C 84.72 35.38 88.51 35.58 91.21 33.23 C 95.23 29.78 98.15 25.23 102.19 21.80 C 103.31 22.09 104.62 22.78 104.75 24.08 C 105.29 27.86 104.93 31.70 105.00 35.51 C 111.64 35.80 118.39 34.91 124.97 35.96 C 125.88 37.51 126.33 40.22 124.00 40.69 C 117.71 41.44 111.33 40.80 105.00 41.00 C 105.03 51.34 104.94 61.69 105.04 72.03 C 105.32 76.78 105.51 81.84 107.96 86.06 C 110.33 89.82 115.69 90.25 119.45 88.56 C 122.82 87.28 123.95 83.57 125.96 80.92 C 127.12 81.07 128.27 81.27 129.42 81.51 C 127.94 86.72 125.92 93.22 119.81 94.42 C 111.42 95.82 101.38 95.45 95.07 88.96 C 89.71 83.41 88.62 75.31 88.29 67.94 C 88.15 59.01 88.28 50.08 88.24 41.15 C 85.70 41.07 83.16 40.87 80.70 40.23 C 80.67 39.20 80.64 38.17 80.61 37.14 C 79.06 44.99 73.09 50.73 68.03 56.52 C 72.82 58.66 78.83 60.59 80.68 66.10 C 82.74 72.94 79.51 80.59 73.95 84.82 C 65.95 91.06 55.61 92.85 45.83 94.27 C 36.78 95.28 26.79 96.21 18.70 91.16 C 13.39 88.11 9.57 81.55 11.53 75.40 C 13.81 67.97 19.02 61.85 24.61 56.62 C 19.69 54.33 13.41 52.35 11.55 46.64 C 9.59 39.40 13.38 31.43 19.44 27.30 M 32.14 23.55 C 26.65 25.30 21.06 27.73 17.11 32.07 C 14.14 35.76 12.28 40.78 13.31 45.51 C 14.35 49.94 18.93 51.72 22.58 53.52 C 35.80 59.51 49.29 64.85 62.73 70.29 C 65.59 71.45 68.64 73.17 69.76 76.24 C 70.74 79.40 69.37 82.98 66.56 84.72 C 60.32 88.89 52.34 89.70 45.05 88.63 C 37.93 87.18 30.31 84.04 26.66 77.33 C 23.31 71.34 24.36 64.20 25.93 57.85 C 21.26 62.71 16.58 67.86 14.05 74.20 C 12.89 76.95 12.55 80.18 13.92 82.93 C 16.56 88.99 23.31 91.92 29.50 92.78 C 36.00 93.40 42.54 92.69 48.98 91.77 C 57.21 90.47 65.69 88.52 72.48 83.43 C 77.44 79.76 80.38 73.16 78.88 67.07 C 77.88 63.37 74.21 61.52 71.02 60.01 C 57.59 53.84 43.79 48.56 30.15 42.90 C 27.51 41.78 24.69 40.41 23.26 37.78 C 21.34 34.17 22.86 29.25 26.46 27.32 C 33.48 23.07 42.37 22.62 50.14 24.90 C 55.99 26.54 61.95 29.40 65.21 34.76 C 69.08 40.85 68.12 48.49 66.35 55.10 C 71.32 50.03 76.30 44.55 78.69 37.74 C 80.23 33.49 78.71 28.63 75.45 25.63 C 71.29 21.85 65.59 19.98 60.01 20.01 C 50.62 19.77 41.19 21.04 32.14 23.55 M 92.66 34.67 C 89.96 37.27 86.05 37.42 82.54 37.75 L 82.54 38.99 C 85.12 39.00 87.70 39.00 90.28 39.00 C 90.33 48.65 90.19 58.30 90.34 67.95 C 90.63 75.00 91.65 82.82 96.95 88.00 C 102.76 93.46 111.48 93.56 118.91 92.56 C 123.66 91.85 125.60 87.07 127.02 83.10 C 125.28 85.84 123.63 89.03 120.45 90.33 C 115.70 92.60 108.96 91.77 106.11 86.96 C 103.59 82.41 103.27 77.05 103.00 71.96 C 102.97 60.98 103.02 49.99 103.00 39.00 C 109.92 38.99 116.84 39.01 123.77 38.98 L 123.70 37.54 C 116.80 37.59 109.90 37.54 103.01 37.59 C 102.98 32.95 103.01 28.31 102.97 23.67 C 99.47 27.28 96.33 31.23 92.66 34.67 M 27.84 28.84 C 24.98 30.20 23.59 33.95 25.00 36.81 C 26.32 39.04 28.83 40.07 31.08 41.09 C 42.18 45.71 53.41 50.02 64.41 54.88 C 65.43 50.06 66.57 45.02 65.30 40.12 C 64.01 34.70 59.52 30.59 54.47 28.58 C 46.15 24.87 35.93 24.21 27.84 28.84 M 28.50 76.47 C 31.83 82.45 38.69 85.19 45.05 86.57 C 52.02 87.63 59.78 87.01 65.69 82.83 C 67.95 81.42 68.75 78.14 67.34 75.87 C 65.87 73.77 63.40 72.77 61.13 71.81 C 50.10 67.38 39.04 63.00 28.17 58.17 C 26.29 64.04 25.36 70.85 28.50 76.47 Z" />
<path fill="#01060d" opacity="0.96" d=" M 329.60 20.91 C 329.55 18.17 333.00 18.15 334.98 17.99 C 354.32 18.00 373.66 18.01 393.00 17.99 C 394.49 17.98 396.67 18.00 397.01 19.90 C 398.64 28.71 398.86 37.73 400.18 46.57 C 398.03 47.89 395.96 46.03 395.87 43.79 C 394.97 37.18 391.68 30.69 385.91 27.08 C 381.88 24.27 376.89 23.30 372.04 23.46 C 365.16 23.46 358.27 23.59 351.39 23.39 C 351.60 37.58 351.46 51.77 351.46 65.96 C 357.98 66.00 364.49 66.03 371.01 65.98 C 374.08 66.11 377.26 64.46 378.66 61.68 C 379.46 59.64 379.66 57.43 380.36 55.36 C 382.54 53.40 383.66 57.22 384.12 58.81 C 385.24 65.51 386.01 72.29 386.87 79.03 C 386.79 80.35 387.75 82.80 385.84 83.20 C 383.41 83.00 382.86 80.12 381.68 78.44 C 379.68 74.29 375.18 71.81 370.66 71.59 C 364.24 71.28 357.81 71.66 351.39 71.39 C 351.56 77.50 351.50 83.62 351.45 89.74 C 353.40 90.66 357.14 90.09 357.30 92.94 C 356.21 94.65 353.82 94.56 352.06 94.90 C 345.98 95.12 339.89 95.06 333.82 94.94 C 331.99 94.62 328.77 94.57 328.77 92.05 C 330.40 90.86 332.32 90.08 333.83 88.70 C 334.89 87.39 334.63 85.59 334.75 84.02 C 334.64 64.96 334.82 45.88 334.66 26.82 C 334.76 23.80 331.35 22.77 329.60 20.91 M 331.04 20.05 C 332.72 20.97 334.65 21.74 335.74 23.42 C 336.99 25.39 336.72 27.83 336.81 30.04 C 336.69 48.70 336.87 67.35 336.73 86.00 C 336.91 89.47 333.94 91.75 331.04 92.89 C 339.15 92.93 347.28 93.29 355.37 92.64 C 353.40 92.21 351.42 91.86 349.45 91.48 C 349.43 84.14 349.43 76.79 349.45 69.45 C 356.99 69.59 364.56 69.09 372.08 69.69 C 378.09 70.23 382.79 74.82 384.95 80.23 C 384.08 72.45 382.96 64.70 381.84 56.96 C 381.88 62.12 378.34 67.23 373.02 67.88 C 365.16 68.20 357.27 67.92 349.40 67.98 C 349.48 52.47 349.40 36.96 349.45 21.45 C 358.40 21.54 367.37 21.22 376.32 21.59 C 387.86 22.43 397.19 32.70 397.78 44.12 C 397.24 36.05 395.97 28.05 395.12 20.01 C 373.76 20.02 352.40 19.95 331.04 20.05 Z" />
<path fill="#01060d" opacity="0.96" d=" M 155.27 36.32 C 156.78 35.88 158.38 36.01 159.94 35.96 C 177.98 36.05 196.03 35.98 214.07 35.99 C 215.51 36.05 217.93 35.95 217.86 38.02 C 218.17 41.99 218.16 46.00 217.86 49.96 C 217.93 52.04 215.52 51.96 214.07 52.01 C 195.35 51.99 176.63 52.00 157.91 52.01 C 156.46 51.95 154.06 52.04 154.14 49.98 C 154.02 45.56 153.39 40.90 154.60 36.61 L 155.27 36.32 M 156.00 38.00 C 156.00 42.00 156.00 46.00 156.00 50.00 C 176.00 50.00 196.00 50.00 216.00 50.00 C 216.00 46.00 216.00 42.00 216.00 38.00 C 196.00 38.00 176.00 38.00 156.00 38.00 Z" />
<path fill="#01060d" opacity="0.96" d=" M 616.49 39.43 C 621.46 35.77 627.95 34.78 633.96 35.58 C 643.16 36.58 652.61 40.10 658.75 47.30 C 662.39 51.24 664.12 56.62 664.38 61.91 C 664.68 70.37 664.45 78.87 665.41 87.30 C 667.38 88.00 671.10 87.06 671.26 89.99 C 667.17 93.03 662.10 94.59 657.07 95.00 C 653.46 95.24 649.66 93.17 648.37 89.71 C 647.68 87.54 647.63 85.24 647.42 82.99 C 641.76 88.20 635.10 92.75 627.43 94.29 C 621.28 95.60 614.46 95.33 608.98 91.98 C 603.51 88.41 602.63 80.26 605.78 74.87 C 609.30 69.16 615.89 66.56 622.02 64.69 C 618.06 60.68 613.91 56.43 612.24 50.90 C 610.73 46.67 613.06 41.98 616.49 39.43 M 619.18 40.09 C 615.77 41.95 612.89 45.96 614.07 49.97 C 615.80 55.75 620.31 60.06 624.37 64.29 C 623.62 56.87 625.94 49.29 630.53 43.46 C 632.45 41.20 635.57 39.13 638.63 40.32 C 643.30 42.08 645.80 46.75 647.80 51.01 C 646.44 53.21 645.12 55.51 643.15 57.24 C 633.96 64.72 621.31 65.21 611.54 71.59 C 605.75 75.20 603.89 84.17 608.81 89.22 C 614.03 93.63 621.58 93.58 627.91 92.10 C 636.46 90.24 643.08 84.17 649.46 78.60 C 649.88 83.20 648.34 89.78 653.45 92.33 C 658.42 94.15 663.56 91.58 668.17 89.80 C 666.81 89.61 665.48 89.35 664.17 89.01 C 662.91 86.70 662.99 84.00 662.82 81.46 C 662.64 75.30 662.44 69.14 662.39 62.98 C 662.35 57.60 660.60 52.12 656.83 48.18 C 652.17 42.85 645.42 39.96 638.68 38.33 C 632.23 37.09 625.03 36.56 619.18 40.09 M 631.98 44.90 C 628.01 50.08 625.88 56.63 626.31 63.17 C 633.48 60.61 641.52 58.00 645.64 51.05 C 643.78 47.59 641.76 43.58 637.78 42.19 C 635.48 41.41 633.40 43.33 631.98 44.90 Z" />
<path fill="#01060d" opacity="0.96" d=" M 247.19 43.49 C 255.08 37.23 266.12 35.20 275.63 38.63 C 288.47 42.77 297.15 56.75 294.93 70.10 C 293.39 81.87 283.88 92.00 272.24 94.31 C 263.48 96.38 254.08 93.86 247.00 88.45 C 246.89 97.29 247.21 106.13 246.88 114.96 C 246.56 117.81 242.97 117.22 240.94 117.32 C 235.68 117.06 230.32 117.84 225.13 116.75 C 223.74 112.97 230.59 112.74 230.41 108.99 C 230.68 92.00 230.39 75.00 230.55 58.01 C 230.49 55.70 230.71 53.31 230.01 51.07 C 228.32 49.02 225.78 47.92 223.98 45.99 C 223.26 44.67 225.08 43.67 226.15 43.48 C 230.11 42.61 234.41 43.03 238.09 41.07 C 240.53 39.96 242.51 37.91 245.15 37.26 C 247.34 38.55 246.82 41.36 247.19 43.49 M 244.99 48.26 C 245.00 45.23 245.00 42.21 245.00 39.19 C 239.65 43.74 232.69 45.30 225.81 45.32 C 227.58 46.46 229.50 47.44 230.98 48.98 C 232.64 50.91 232.55 53.62 232.60 56.01 C 232.51 73.34 232.61 90.68 232.55 108.01 C 232.85 111.21 230.34 113.43 228.12 115.28 C 233.75 115.18 239.37 115.24 245.00 115.23 C 245.00 104.73 245.00 94.24 244.99 83.75 C 252.48 91.86 264.72 95.31 275.17 91.38 C 286.71 87.51 294.68 75.08 293.03 62.95 C 291.90 51.43 282.48 41.51 271.12 39.50 C 261.60 37.49 251.56 41.25 244.99 48.26 Z" />
<path fill="#01060d" opacity="0.96" d=" M 420.51 37.69 C 436.13 33.73 453.63 44.92 456.03 60.96 C 459.12 75.82 448.28 91.45 433.50 94.30 C 417.92 98.26 400.50 87.09 398.04 71.12 C 394.88 56.25 405.76 40.64 420.51 37.69 M 424.14 39.13 C 409.70 40.32 397.71 54.44 399.76 68.97 C 401.04 84.20 417.06 95.67 431.91 92.56 C 445.51 90.47 456.18 76.88 454.29 63.11 C 453.11 48.56 438.48 37.30 424.14 39.13 Z" />
<path fill="#01060d" opacity="0.96" d=" M 474.48 37.67 C 478.03 36.02 478.02 41.12 478.21 43.32 C 487.46 36.18 502.32 33.95 511.30 42.70 C 517.60 40.18 524.47 39.86 531.04 38.42 C 534.24 38.01 538.25 36.31 540.63 39.45 C 539.03 41.22 535.86 43.09 537.19 45.91 C 538.89 51.36 541.12 56.63 542.98 62.03 C 545.13 67.62 546.56 73.62 550.23 78.48 C 552.50 70.76 554.29 62.90 556.43 55.13 C 557.17 52.27 558.06 48.73 555.72 46.33 C 553.19 45.23 549.59 46.10 547.72 43.95 C 547.82 43.55 548.01 42.75 548.11 42.35 C 553.92 40.49 560.04 39.88 566.02 38.75 C 569.54 38.22 573.19 37.17 576.72 38.25 C 579.14 41.69 571.30 40.48 573.10 43.76 C 576.14 52.88 579.75 61.82 582.89 70.92 C 583.72 73.62 585.15 76.09 586.98 78.25 C 589.85 67.46 592.92 56.71 595.32 45.81 C 592.87 43.82 587.09 47.24 586.62 42.94 C 593.09 39.30 600.92 39.51 608.04 37.97 C 610.01 37.71 615.48 37.20 613.67 40.46 C 610.26 41.65 606.47 42.22 603.71 44.75 C 600.51 47.19 599.76 51.34 598.79 54.99 C 596.65 63.21 594.56 71.44 592.39 79.64 C 591.81 82.68 588.46 83.61 586.25 85.21 C 581.78 87.57 578.75 91.69 575.76 95.62 C 574.42 94.49 572.91 93.38 572.42 91.60 C 568.58 81.02 564.89 70.38 560.96 59.83 C 559.05 66.19 557.61 72.69 555.85 79.09 C 555.23 82.99 550.88 84.02 548.15 86.09 C 544.29 88.18 542.34 92.35 538.91 94.92 C 537.28 94.87 536.39 93.55 535.96 92.15 C 530.67 78.09 525.59 63.95 520.27 49.91 C 519.33 46.76 515.91 45.96 513.30 44.75 C 514.24 48.09 514.59 51.73 512.81 54.87 C 510.26 59.80 506.63 64.37 502.07 67.56 C 501.50 67.44 500.38 67.22 499.81 67.11 C 499.26 63.94 500.09 60.65 499.23 57.53 C 497.54 53.55 493.75 50.75 489.77 49.31 C 485.82 47.92 481.62 49.12 478.08 51.05 C 477.96 62.73 477.94 74.43 478.07 86.11 C 477.74 89.52 481.39 90.33 483.71 91.60 C 485.62 94.14 480.84 94.67 479.10 94.92 C 471.36 94.80 463.44 95.86 455.85 93.96 C 455.87 93.33 455.90 92.09 455.91 91.47 C 458.39 90.46 461.73 89.33 461.46 86.01 C 461.56 74.68 461.55 63.34 461.46 52.01 C 461.86 47.14 454.47 46.95 455.42 41.84 C 461.96 41.40 468.54 40.67 474.48 37.67 M 475.98 48.01 C 476.00 45.06 476.00 42.11 476.00 39.16 C 470.10 42.26 463.51 43.45 456.91 43.67 C 458.73 44.98 460.88 45.99 462.28 47.80 C 463.91 50.21 463.50 53.28 463.60 56.03 C 463.42 66.30 463.78 76.59 463.44 86.85 C 463.33 90.39 460.09 92.24 456.99 92.84 C 465.37 93.08 473.76 93.01 482.15 92.92 C 480.37 92.11 478.17 91.68 477.09 89.89 C 475.76 87.84 476.02 85.29 475.96 82.97 C 476.07 72.02 475.91 61.06 476.05 50.11 C 482.18 45.25 491.32 45.76 496.96 51.15 C 501.58 54.57 502.39 60.63 501.52 65.95 C 505.51 61.70 510.08 57.51 511.84 51.76 C 512.68 49.34 511.82 46.67 510.26 44.74 C 507.10 40.84 501.94 39.16 497.07 39.01 C 489.13 38.84 481.50 42.43 475.98 48.01 M 512.99 43.41 C 516.68 43.58 520.76 45.07 522.04 48.89 C 527.55 63.60 533.05 78.33 538.38 93.11 C 542.12 87.53 547.57 83.59 553.41 80.46 C 555.78 71.26 558.26 62.09 560.55 52.87 C 565.60 66.21 570.23 79.71 575.14 93.11 C 577.49 90.10 579.80 86.95 583.05 84.85 C 585.31 83.20 588.01 82.12 590.01 80.13 C 593.38 69.51 595.35 58.45 598.84 47.86 C 600.92 42.43 606.62 40.64 611.73 39.39 C 610.25 39.18 608.71 39.09 607.30 39.63 C 601.01 41.66 594.33 41.96 587.96 43.68 C 590.47 43.54 593.15 42.51 595.60 43.39 C 597.71 44.36 597.35 46.92 596.83 48.74 C 594.09 59.42 591.24 70.07 588.51 80.75 C 585.21 79.83 582.94 77.14 581.90 73.97 C 578.31 64.22 574.76 54.46 571.21 44.71 C 570.40 43.12 571.17 41.49 571.60 39.93 C 572.74 39.72 573.89 39.49 575.04 39.26 C 566.38 40.71 557.75 42.34 549.06 43.57 C 551.90 43.94 555.56 42.88 557.62 45.44 C 559.73 47.95 559.51 51.51 558.67 54.49 C 556.33 63.24 554.14 72.02 551.81 80.76 C 546.94 79.54 545.31 74.53 543.82 70.34 C 541.01 62.20 537.76 54.20 535.10 46.00 C 534.02 43.28 536.19 41.01 537.85 39.14 C 529.62 40.84 521.33 42.40 512.99 43.41 Z" />
<path fill="#01060d" opacity="0.96" d=" M 683.87 40.19 C 686.62 39.40 689.14 37.94 691.93 37.25 C 694.44 38.08 693.73 41.30 694.21 43.32 C 700.98 38.26 709.95 35.66 718.29 37.70 C 723.00 38.81 727.62 41.74 729.52 46.34 C 731.25 50.33 729.23 54.61 727.08 57.99 C 724.75 61.29 722.16 64.49 718.98 67.00 C 718.08 67.87 716.73 67.65 715.82 66.96 C 715.14 63.68 716.29 60.17 715.01 57.00 C 713.02 53.09 709.13 50.26 704.95 49.07 C 701.21 48.04 697.37 49.28 694.08 51.05 C 693.96 62.74 693.94 74.43 694.07 86.12 C 693.71 89.85 697.97 90.23 700.14 92.04 C 700.62 94.21 697.65 94.38 696.23 94.76 C 689.79 95.27 683.29 94.97 676.84 94.95 C 674.95 94.61 671.53 94.73 671.67 92.05 C 673.80 90.21 677.79 89.58 677.46 85.97 C 677.56 74.67 677.55 63.35 677.46 52.05 C 677.76 48.67 674.32 47.36 672.25 45.48 C 671.40 44.42 670.83 42.36 672.55 41.81 C 676.28 41.03 680.20 41.34 683.87 40.19 M 691.98 48.01 C 691.99 45.07 692.00 42.13 692.00 39.19 C 686.10 42.25 679.54 43.45 672.96 43.67 C 674.74 44.97 676.83 45.99 678.24 47.75 C 679.91 50.16 679.50 53.25 679.60 56.02 C 679.42 66.31 679.78 76.61 679.44 86.88 C 679.31 90.36 676.14 92.27 673.03 92.75 C 681.38 93.17 689.75 92.95 698.12 92.94 C 696.71 92.33 695.23 91.84 693.99 90.95 C 691.99 89.21 691.96 86.36 691.96 83.93 C 692.05 72.67 691.94 61.41 692.03 50.15 C 698.90 44.49 709.48 46.27 714.88 53.08 C 718.18 56.56 717.98 61.61 717.47 66.03 C 721.45 61.72 726.08 57.54 727.84 51.75 C 729.01 48.32 726.90 44.77 724.22 42.72 C 714.24 35.48 699.98 39.67 691.98 48.01 Z" />
<path fill="#01060d" opacity="0.96" d=" M 253.42 45.63 C 259.69 44.77 265.84 47.58 270.89 51.08 C 278.73 56.77 285.36 65.16 286.50 75.06 C 287.24 79.82 284.45 85.17 279.62 86.43 C 273.38 87.84 267.04 85.48 261.87 82.08 C 255.28 77.72 249.79 71.51 246.80 64.17 C 245.28 60.50 244.69 56.36 245.59 52.46 C 246.48 48.83 249.79 46.19 253.42 45.63 M 251.41 48.36 C 248.84 49.47 247.31 52.24 247.26 54.98 C 246.78 60.39 249.28 65.48 252.19 69.86 C 256.74 76.44 263.35 81.79 271.05 84.16 C 275.00 85.14 280.31 85.50 282.97 81.75 C 285.52 78.25 284.50 73.61 283.24 69.82 C 280.03 61.22 273.22 54.13 265.09 49.99 C 260.93 47.99 255.87 46.40 251.41 48.36 Z" />
<path fill="#01060d" opacity="0.96" d=" M 412.28 46.33 C 416.60 44.52 421.43 45.72 425.58 47.42 C 435.31 51.72 443.39 60.08 446.75 70.24 C 448.21 74.73 448.41 80.32 444.99 83.99 C 441.54 87.43 436.15 87.25 431.76 86.14 C 423.84 83.80 417.15 78.27 412.25 71.74 C 408.91 67.17 406.46 61.72 406.28 56.00 C 406.12 51.95 408.41 47.80 412.28 46.33 M 413.20 48.15 C 409.98 49.28 408.14 52.71 408.31 56.02 C 408.67 64.19 413.65 71.36 419.49 76.73 C 424.61 81.14 430.92 85.15 437.94 84.76 C 440.68 84.76 443.62 83.39 444.75 80.77 C 446.43 77.30 445.67 73.24 444.45 69.76 C 440.79 60.13 432.79 52.29 423.17 48.67 C 420.00 47.60 416.41 46.86 413.20 48.15 Z" />
<path fill="#01060d" opacity="0.96" d=" M 744.28 46.33 C 748.60 44.52 753.45 45.72 757.60 47.43 C 767.33 51.74 775.40 60.10 778.76 70.26 C 780.20 74.73 780.41 80.29 777.02 83.95 C 773.80 87.26 768.74 87.22 764.54 86.35 C 756.04 84.14 748.89 78.19 743.84 71.15 C 740.58 66.46 738.08 60.89 738.30 55.08 C 738.43 51.33 740.72 47.70 744.28 46.33 M 745.23 48.14 C 742.34 49.16 740.43 52.06 740.35 55.08 C 740.07 61.59 743.45 67.59 747.42 72.51 C 752.02 78.00 758.07 82.59 765.09 84.39 C 768.58 85.03 772.83 85.27 775.56 82.54 C 778.49 79.24 777.98 74.34 776.69 70.45 C 773.19 60.50 765.01 52.38 755.17 48.67 C 752.00 47.60 748.44 46.86 745.23 48.14 Z" />
<path fill="#01060d" opacity="0.96" d=" M 640.60 60.70 C 643.71 58.93 646.08 56.19 648.47 53.58 C 650.02 61.13 649.67 68.91 649.43 76.56 C 645.47 81.22 640.39 85.08 634.95 87.91 C 629.67 90.68 621.96 89.88 618.78 84.37 C 615.90 80.15 616.99 74.02 620.80 70.74 C 626.37 65.61 634.20 64.43 640.60 60.70 M 636.18 65.06 C 630.79 67.40 624.53 69.00 620.75 73.84 C 616.87 78.81 620.65 87.15 627.02 87.29 C 635.41 87.96 641.55 80.94 647.52 76.09 C 647.48 70.13 647.61 64.17 647.36 58.22 C 643.99 61.04 640.34 63.58 636.18 65.06 Z" />
<path fill="#01060d" opacity="0.96" d=" M 146.31 57.30 C 148.84 56.73 151.47 57.03 154.04 56.98 C 170.70 57.01 187.36 57.02 204.03 56.96 C 205.49 57.04 207.07 56.88 208.40 57.62 C 209.46 60.27 208.90 63.24 209.06 66.03 C 208.91 68.15 209.37 70.48 208.34 72.42 C 207.01 73.13 205.44 72.95 204.00 73.04 C 185.64 72.96 167.27 73.01 148.91 73.01 C 147.46 72.96 145.05 73.03 145.14 70.96 C 145.04 66.55 144.36 61.88 145.61 57.60 L 146.31 57.30 M 147.00 59.00 C 147.00 63.00 147.00 67.00 147.00 71.00 C 167.00 71.00 187.00 71.00 207.00 71.00 C 207.00 67.00 207.00 63.00 207.00 59.00 C 187.00 59.00 167.00 59.00 147.00 59.00 Z" />
<path fill="#01060d" opacity="0.96" d=" M 137.39 78.28 C 139.88 77.75 142.47 78.03 145.00 77.98 C 161.68 78.01 178.35 78.02 195.02 77.96 C 196.47 78.04 198.03 77.88 199.36 78.59 C 200.43 80.89 199.90 83.56 200.07 86.02 C 199.91 88.47 200.42 91.12 199.36 93.42 C 198.01 94.11 196.43 93.96 194.97 94.04 C 176.62 93.96 158.27 94.01 139.93 94.01 C 138.47 93.97 136.05 94.03 136.13 91.94 C 136.06 87.52 135.32 82.81 136.66 78.55 L 137.39 78.28 M 138.01 80.00 C 138.00 84.00 138.00 88.00 138.00 92.00 C 158.00 92.00 178.00 92.00 198.00 92.00 C 198.00 88.00 198.00 84.00 198.00 80.00 C 178.00 80.00 158.00 80.00 138.01 80.00 Z" />
</g>
<g id="#1a73e8ff">
<path fill="#1a73e8" opacity="1.00" d=" M 774.70 23.00 C 781.30 22.73 787.88 21.47 793.74 18.29 C 793.88 41.14 793.03 64.00 793.58 86.84 C 793.67 90.37 796.95 92.13 799.98 92.88 C 793.65 93.00 787.32 93.02 781.00 93.00 C 780.99 89.38 780.99 85.76 781.02 82.14 C 776.88 87.11 771.33 91.05 764.91 92.33 C 753.45 95.11 740.65 89.34 734.99 79.03 C 729.63 69.73 730.71 57.21 737.71 49.04 C 744.31 40.90 755.78 37.09 765.91 39.88 C 771.92 41.33 777.03 45.13 781.01 49.76 C 780.88 43.15 781.21 36.53 780.90 29.93 C 780.69 26.42 777.18 24.81 774.70 23.00 M 744.28 46.33 C 740.72 47.70 738.43 51.33 738.30 55.08 C 738.08 60.89 740.58 66.46 743.84 71.15 C 748.89 78.19 756.04 84.14 764.54 86.35 C 768.74 87.22 773.80 87.26 777.02 83.95 C 780.41 80.29 780.20 74.73 778.76 70.26 C 775.40 60.10 767.33 51.74 757.60 47.43 C 753.45 45.72 748.60 44.52 744.28 46.33 Z" />
<path fill="#1a73e8" opacity="1.00" d=" M 32.14 23.55 C 41.19 21.04 50.62 19.77 60.01 20.01 C 65.59 19.98 71.29 21.85 75.45 25.63 C 78.71 28.63 80.23 33.49 78.69 37.74 C 76.30 44.55 71.32 50.03 66.35 55.10 C 68.12 48.49 69.08 40.85 65.21 34.76 C 61.95 29.40 55.99 26.54 50.14 24.90 C 42.37 22.62 33.48 23.07 26.46 27.32 C 22.86 29.25 21.34 34.17 23.26 37.78 C 24.69 40.41 27.51 41.78 30.15 42.90 C 43.79 48.56 57.59 53.84 71.02 60.01 C 74.21 61.52 77.88 63.37 78.88 67.07 C 80.38 73.16 77.44 79.76 72.48 83.43 C 65.69 88.52 57.21 90.47 48.98 91.77 C 42.54 92.69 36.00 93.40 29.50 92.78 C 23.31 91.92 16.56 88.99 13.92 82.93 C 12.55 80.18 12.89 76.95 14.05 74.20 C 16.58 67.86 21.26 62.71 25.93 57.85 C 24.36 64.20 23.31 71.34 26.66 77.33 C 30.31 84.04 37.93 87.18 45.05 88.63 C 52.34 89.70 60.32 88.89 66.56 84.72 C 69.37 82.98 70.74 79.40 69.76 76.24 C 68.64 73.17 65.59 71.45 62.73 70.29 C 49.29 64.85 35.80 59.51 22.58 53.52 C 18.93 51.72 14.35 49.94 13.31 45.51 C 12.28 40.78 14.14 35.76 17.11 32.07 C 21.06 27.73 26.65 25.30 32.14 23.55 Z" />
<path fill="#1a73e8" opacity="1.00" d=" M 331.04 20.05 C 352.40 19.95 373.76 20.02 395.12 20.01 C 395.97 28.05 397.24 36.05 397.78 44.12 C 397.19 32.70 387.86 22.43 376.32 21.59 C 367.37 21.22 358.40 21.54 349.45 21.45 C 349.40 36.96 349.48 52.47 349.40 67.98 C 357.27 67.92 365.16 68.20 373.02 67.88 C 378.34 67.23 381.88 62.12 381.84 56.96 C 382.96 64.70 384.08 72.45 384.95 80.23 C 382.79 74.82 378.09 70.23 372.08 69.69 C 364.56 69.09 356.99 69.59 349.45 69.45 C 349.43 76.79 349.43 84.14 349.45 91.48 C 351.42 91.86 353.40 92.21 355.37 92.64 C 347.28 93.29 339.15 92.93 331.04 92.89 C 333.94 91.75 336.91 89.47 336.73 86.00 C 336.87 67.35 336.69 48.70 336.81 30.04 C 336.72 27.83 336.99 25.39 335.74 23.42 C 334.65 21.74 332.72 20.97 331.04 20.05 Z" />
<path fill="#1a73e8" opacity="1.00" d=" M 92.66 34.67 C 96.33 31.23 99.47 27.28 102.97 23.67 C 103.01 28.31 102.98 32.95 103.01 37.59 C 109.90 37.54 116.80 37.59 123.70 37.54 L 123.77 38.98 C 116.84 39.01 109.92 38.99 103.00 39.00 C 103.02 49.99 102.97 60.98 103.00 71.96 C 103.27 77.05 103.59 82.41 106.11 86.96 C 108.96 91.77 115.70 92.60 120.45 90.33 C 123.63 89.03 125.28 85.84 127.02 83.10 C 125.60 87.07 123.66 91.85 118.91 92.56 C 111.48 93.56 102.76 93.46 96.95 88.00 C 91.65 82.82 90.63 75.00 90.34 67.95 C 90.19 58.30 90.33 48.65 90.28 39.00 C 87.70 39.00 85.12 39.00 82.54 38.99 L 82.54 37.75 C 86.05 37.42 89.96 37.27 92.66 34.67 Z" />
<path fill="#1a73e8" opacity="1.00" d=" M 156.00 38.00 C 176.00 38.00 196.00 38.00 216.00 38.00 C 216.00 42.00 216.00 46.00 216.00 50.00 C 196.00 50.00 176.00 50.00 156.00 50.00 C 156.00 46.00 156.00 42.00 156.00 38.00 Z" />
<path fill="#1a73e8" opacity="1.00" d=" M 619.18 40.09 C 625.03 36.56 632.23 37.09 638.68 38.33 C 645.42 39.96 652.17 42.85 656.83 48.18 C 660.60 52.12 662.35 57.60 662.39 62.98 C 662.44 69.14 662.64 75.30 662.82 81.46 C 662.99 84.00 662.91 86.70 664.17 89.01 C 665.48 89.35 666.81 89.61 668.17 89.80 C 663.56 91.58 658.42 94.15 653.45 92.33 C 648.34 89.78 649.88 83.20 649.46 78.60 C 643.08 84.17 636.46 90.24 627.91 92.10 C 621.58 93.58 614.03 93.63 608.81 89.22 C 603.89 84.17 605.75 75.20 611.54 71.59 C 621.31 65.21 633.96 64.72 643.15 57.24 C 645.12 55.51 646.44 53.21 647.80 51.01 C 645.80 46.75 643.30 42.08 638.63 40.32 C 635.57 39.13 632.45 41.20 630.53 43.46 C 625.94 49.29 623.62 56.87 624.37 64.29 C 620.31 60.06 615.80 55.75 614.07 49.97 C 612.89 45.96 615.77 41.95 619.18 40.09 M 640.60 60.70 C 634.20 64.43 626.37 65.61 620.80 70.74 C 616.99 74.02 615.90 80.15 618.78 84.37 C 621.96 89.88 629.67 90.68 634.95 87.91 C 640.39 85.08 645.47 81.22 649.43 76.56 C 649.67 68.91 650.02 61.13 648.47 53.58 C 646.08 56.19 643.71 58.93 640.60 60.70 Z" />
<path fill="#1a73e8" opacity="1.00" d=" M 244.99 48.26 C 251.56 41.25 261.60 37.49 271.12 39.50 C 282.48 41.51 291.90 51.43 293.03 62.95 C 294.68 75.08 286.71 87.51 275.17 91.38 C 264.72 95.31 252.48 91.86 244.99 83.75 C 245.00 94.24 245.00 104.73 245.00 115.23 C 239.37 115.24 233.75 115.18 228.12 115.28 C 230.34 113.43 232.85 111.21 232.55 108.01 C 232.61 90.68 232.51 73.34 232.60 56.01 C 232.55 53.62 232.64 50.91 230.98 48.98 C 229.50 47.44 227.58 46.46 225.81 45.32 C 232.69 45.30 239.65 43.74 245.00 39.19 C 245.00 42.21 245.00 45.23 244.99 48.26 M 253.42 45.63 C 249.79 46.19 246.48 48.83 245.59 52.46 C 244.69 56.36 245.28 60.50 246.80 64.17 C 249.79 71.51 255.28 77.72 261.87 82.08 C 267.04 85.48 273.38 87.84 279.62 86.43 C 284.45 85.17 287.24 79.82 286.50 75.06 C 285.36 65.16 278.73 56.77 270.89 51.08 C 265.84 47.58 259.69 44.77 253.42 45.63 Z" />
<path fill="#1a73e8" opacity="1.00" d=" M 424.14 39.13 C 438.48 37.30 453.11 48.56 454.29 63.11 C 456.18 76.88 445.51 90.47 431.91 92.56 C 417.06 95.67 401.04 84.20 399.76 68.97 C 397.71 54.44 409.70 40.32 424.14 39.13 M 412.28 46.33 C 408.41 47.80 406.12 51.95 406.28 56.00 C 406.46 61.72 408.91 67.17 412.25 71.74 C 417.15 78.27 423.84 83.80 431.76 86.14 C 436.15 87.25 441.54 87.43 444.99 83.99 C 448.41 80.32 448.21 74.73 446.75 70.24 C 443.39 60.08 435.31 51.72 425.58 47.42 C 421.43 45.72 416.60 44.52 412.28 46.33 Z" />
<path fill="#1a73e8" opacity="1.00" d=" M 475.98 48.01 C 481.50 42.43 489.13 38.84 497.07 39.01 C 501.94 39.16 507.10 40.84 510.26 44.74 C 511.82 46.67 512.68 49.34 511.84 51.76 C 510.08 57.51 505.51 61.70 501.52 65.95 C 502.39 60.63 501.58 54.57 496.96 51.15 C 491.32 45.76 482.18 45.25 476.05 50.11 C 475.91 61.06 476.07 72.02 475.96 82.97 C 476.02 85.29 475.76 87.84 477.09 89.89 C 478.17 91.68 480.37 92.11 482.15 92.92 C 473.76 93.01 465.37 93.08 456.99 92.84 C 460.09 92.24 463.33 90.39 463.44 86.85 C 463.78 76.59 463.42 66.30 463.60 56.03 C 463.50 53.28 463.91 50.21 462.28 47.80 C 460.88 45.99 458.73 44.98 456.91 43.67 C 463.51 43.45 470.10 42.26 476.00 39.16 C 476.00 42.11 476.00 45.06 475.98 48.01 Z" />
<path fill="#1a73e8" opacity="1.00" d=" M 512.99 43.41 C 521.33 42.40 529.62 40.84 537.85 39.14 C 536.19 41.01 534.02 43.28 535.10 46.00 C 537.76 54.20 541.01 62.20 543.82 70.34 C 545.31 74.53 546.94 79.54 551.81 80.76 C 554.14 72.02 556.33 63.24 558.67 54.49 C 559.51 51.51 559.73 47.95 557.62 45.44 C 555.56 42.88 551.90 43.94 549.06 43.57 C 557.75 42.34 566.38 40.71 575.04 39.26 C 573.89 39.49 572.74 39.72 571.60 39.93 C 571.17 41.49 570.40 43.12 571.21 44.71 C 574.76 54.46 578.31 64.22 581.90 73.97 C 582.94 77.14 585.21 79.83 588.51 80.75 C 591.24 70.07 594.09 59.42 596.83 48.74 C 597.35 46.92 597.71 44.36 595.60 43.39 C 593.15 42.51 590.47 43.54 587.96 43.68 C 594.33 41.96 601.01 41.66 607.30 39.63 C 608.71 39.09 610.25 39.18 611.73 39.39 C 606.62 40.64 600.92 42.43 598.84 47.86 C 595.35 58.45 593.38 69.51 590.01 80.13 C 588.01 82.12 585.31 83.20 583.05 84.85 C 579.80 86.95 577.49 90.10 575.14 93.11 C 570.23 79.71 565.60 66.21 560.55 52.87 C 558.26 62.09 555.78 71.26 553.41 80.46 C 547.57 83.59 542.12 87.53 538.38 93.11 C 533.05 78.33 527.55 63.60 522.04 48.89 C 520.76 45.07 516.68 43.58 512.99 43.41 Z" />
<path fill="#1a73e8" opacity="1.00" d=" M 691.98 48.01 C 699.98 39.67 714.24 35.48 724.22 42.72 C 726.90 44.77 729.01 48.32 727.84 51.75 C 726.08 57.54 721.45 61.72 717.47 66.03 C 717.98 61.61 718.18 56.56 714.88 53.08 C 709.48 46.27 698.90 44.49 692.03 50.15 C 691.94 61.41 692.05 72.67 691.96 83.93 C 691.96 86.36 691.99 89.21 693.99 90.95 C 695.23 91.84 696.71 92.33 698.12 92.94 C 689.75 92.95 681.38 93.17 673.03 92.75 C 676.14 92.27 679.31 90.36 679.44 86.88 C 679.78 76.61 679.42 66.31 679.60 56.02 C 679.50 53.25 679.91 50.16 678.24 47.75 C 676.83 45.99 674.74 44.97 672.96 43.67 C 679.54 43.45 686.10 42.25 692.00 39.19 C 692.00 42.13 691.99 45.07 691.98 48.01 Z" />
<path fill="#1a73e8" opacity="1.00" d=" M 147.00 59.00 C 167.00 59.00 187.00 59.00 207.00 59.00 C 207.00 63.00 207.00 67.00 207.00 71.00 C 187.00 71.00 167.00 71.00 147.00 71.00 C 147.00 67.00 147.00 63.00 147.00 59.00 Z" />
<path fill="#1a73e8" opacity="1.00" d=" M 138.01 80.00 C 158.00 80.00 178.00 80.00 198.00 80.00 C 198.00 84.00 198.00 88.00 198.00 92.00 C 178.00 92.00 158.00 92.00 138.00 92.00 C 138.00 88.00 138.00 84.00 138.01 80.00 Z" />
</g>
</svg>
